HIERARCHY
ROOT Hips
{
	OFFSET 0.000000 100.481300 0.000000
	CHANNELS 6 Xposition Yposition Zposition Xrotation Yrotation Zrotation
	JOINT Spine
	{
		OFFSET -0.279200 12.230698 -2.892100
		CHANNELS 3 Xrotation Yrotation Zrotation
		JOINT Spine1
		{
			OFFSET -0.325700 14.269203 -3.374200
			CHANNELS 3 Xrotation Yrotation Zrotation
			JOINT Spine2
			{
				OFFSET -0.372300 16.307602 -0.352600
				CHANNELS 3 Xrotation Yrotation Zrotation
				JOINT Neck
				{
					OFFSET -0.418800 17.814194 8.416900
					CHANNELS 3 Xrotation Yrotation Zrotation
					JOINT Head
					{
						OFFSET 0.000000 7.031097 3.806800
						CHANNELS 3 Xrotation Yrotation Zrotation
						JOINT HeadTop_End
						{
							OFFSET 0.000000 24.646606 12.978600
							CHANNELS 3 Xrotation Yrotation Zrotation
							End Site
							{
								OFFSET 0.000000 27.854965 0.000000
							}
						}
					}
				}
				JOINT LeftShoulder
				{
					OFFSET 16.952999 14.495407 -7.737500
					CHANNELS 3 Xrotation Yrotation Zrotation
					JOINT LeftArm
					{
						OFFSET 9.308998 -2.777710 0.208600
						CHANNELS 3 Xrotation Yrotation Zrotation
						JOINT LeftForeArm
						{
							OFFSET 29.972298 0.000000 0.000000
							CHANNELS 3 Xrotation Yrotation Zrotation
							JOINT LeftHand
							{
								OFFSET 26.026505 0.000000 0.000000
								CHANNELS 3 Xrotation Yrotation Zrotation
								JOINT LeftHandThumb1
								{
									OFFSET 12.240501 -7.147949 9.207150
									CHANNELS 3 Xrotation Yrotation Zrotation
									JOINT LeftHandThumb2
									{
										OFFSET 4.138618 -2.389435 2.389433
										CHANNELS 3 Xrotation Yrotation Zrotation
										JOINT LeftHandThumb3
										{
											OFFSET 2.726913 -1.574387 1.574386
											CHANNELS 3 Xrotation Yrotation Zrotation
											JOINT LeftHandThumb4
											{
												OFFSET 3.941010 -2.275345 2.275342
												CHANNELS 3 Xrotation Yrotation Zrotation
												End Site
												{
													OFFSET -0.005798 5.087799 0.009903
												}
											}
										}
									}
								}
								JOINT LeftHandIndex1
								{
									OFFSET 24.424698 -1.985611 5.953459
									CHANNELS 3 Xrotation Yrotation Zrotation
									JOINT LeftHandIndex2
									{
										OFFSET 6.426697 0.000000 0.000000
										CHANNELS 3 Xrotation Yrotation Zrotation
										JOINT LeftHandIndex3
										{
											OFFSET 5.337898 0.000000 0.000000
											CHANNELS 3 Xrotation Yrotation Zrotation
											JOINT LeftHandIndex4
											{
												OFFSET 4.409401 0.000000 0.000000
												CHANNELS 3 Xrotation Yrotation Zrotation
												End Site
												{
													OFFSET 0.000000 4.409363 0.014373
												}
											}
										}
									}
								}
								JOINT LeftHandMiddle1
								{
									OFFSET 23.810104 0.000000 0.000000
									CHANNELS 3 Xrotation Yrotation Zrotation
									JOINT LeftHandMiddle2
									{
										OFFSET 7.176498 0.000000 0.000000
										CHANNELS 3 Xrotation Yrotation Zrotation
										JOINT LeftHandMiddle3
										{
											OFFSET 6.774902 0.000000 0.000000
											CHANNELS 3 Xrotation Yrotation Zrotation
											JOINT LeftHandMiddle4
											{
												OFFSET 5.403328 0.000000 0.000000
												CHANNELS 3 Xrotation Yrotation Zrotation
												End Site
												{
													OFFSET -0.027702 5.403244 0.017414
												}
											}
										}
									}
								}
								JOINT LeftHandRing1
								{
									OFFSET 22.908401 -0.839279 -6.020567
									CHANNELS 3 Xrotation Yrotation Zrotation
									JOINT LeftHandRing2
									{
										OFFSET 6.337502 0.000000 0.000000
										CHANNELS 3 Xrotation Yrotation Zrotation
										JOINT LeftHandRing3
										{
											OFFSET 5.779297 0.000000 0.000000
											CHANNELS 3 Xrotation Yrotation Zrotation
											JOINT LeftHandRing4
											{
												OFFSET 4.965698 0.000000 0.000000
												CHANNELS 3 Xrotation Yrotation Zrotation
												End Site
												{
													OFFSET 0.000000 4.965668 0.016186
												}
											}
										}
									}
								}
								JOINT LeftHandPinky1
								{
									OFFSET 20.037003 -1.530319 -10.950146
									CHANNELS 3 Xrotation Yrotation Zrotation
									JOINT LeftHandPinky2
									{
										OFFSET 5.254700 0.000000 0.000000
										CHANNELS 3 Xrotation Yrotation Zrotation
										JOINT LeftHandPinky3
										{
											OFFSET 4.810204 0.000000 0.000000
											CHANNELS 3 Xrotation Yrotation Zrotation
											JOINT LeftHandPinky4
											{
												OFFSET 3.647202 0.000000 0.000000
												CHANNELS 3 Xrotation Yrotation Zrotation
												End Site
												{
													OFFSET 0.000000 3.647186 0.011889
												}
											}
										}
									}
								}
							}
						}
					}
				}
				JOINT RightShoulder
				{
					OFFSET -15.141001 14.495407 -7.737500
					CHANNELS 3 Xrotation Yrotation Zrotation
					JOINT RightArm
					{
						OFFSET -9.308998 -2.777710 0.208500
						CHANNELS 3 Xrotation Yrotation Zrotation
						JOINT RightForeArm
						{
							OFFSET -29.972300 0.000000 0.000000
							CHANNELS 3 Xrotation Yrotation Zrotation
							JOINT RightHand
							{
								OFFSET -26.026505 0.000000 0.000000
								CHANNELS 3 Xrotation Yrotation Zrotation
								JOINT RightHandThumb1
								{
									OFFSET -12.240601 -7.148026 9.207092
									CHANNELS 3 Xrotation Yrotation Zrotation
									JOINT RightHandThumb2
									{
										OFFSET -4.138618 -2.389435 2.389433
										CHANNELS 3 Xrotation Yrotation Zrotation
										JOINT RightHandThumb3
										{
											OFFSET -2.726974 -1.574417 1.574421
											CHANNELS 3 Xrotation Yrotation Zrotation
											JOINT RightHandThumb4
											{
												OFFSET -3.941010 -2.275345 2.275343
												CHANNELS 3 Xrotation Yrotation Zrotation
												End Site
												{
													OFFSET 0.005814 5.087799 0.009927
												}
											}
										}
									}
								}
								JOINT RightHandIndex1
								{
									OFFSET -24.424698 -1.985657 5.953444
									CHANNELS 3 Xrotation Yrotation Zrotation
									JOINT RightHandIndex2
									{
										OFFSET -6.426697 0.000000 0.000000
										CHANNELS 3 Xrotation Yrotation Zrotation
										JOINT RightHandIndex3
										{
											OFFSET -5.337898 0.000000 0.000000
											CHANNELS 3 Xrotation Yrotation Zrotation
											JOINT RightHandIndex4
											{
												OFFSET -4.409401 0.000000 0.000000
												CHANNELS 3 Xrotation Yrotation Zrotation
												End Site
												{
													OFFSET 0.000000 4.409363 0.014408
												}
											}
										}
									}
								}
								JOINT RightHandMiddle1
								{
									OFFSET -23.810097 0.000000 0.000000
									CHANNELS 3 Xrotation Yrotation Zrotation
									JOINT RightHandMiddle2
									{
										OFFSET -7.176498 0.000000 0.000000
										CHANNELS 3 Xrotation Yrotation Zrotation
										JOINT RightHandMiddle3
										{
											OFFSET -6.774902 0.000000 0.000000
											CHANNELS 3 Xrotation Yrotation Zrotation
											JOINT RightHandMiddle4
											{
												OFFSET -5.403328 0.000000 0.000000
												CHANNELS 3 Xrotation Yrotation Zrotation
												End Site
												{
													OFFSET 0.027702 5.403244 0.017457
												}
											}
										}
									}
								}
								JOINT RightHandRing1
								{
									OFFSET -22.908302 -0.839325 -6.020576
									CHANNELS 3 Xrotation Yrotation Zrotation
									JOINT RightHandRing2
									{
										OFFSET -6.337502 0.000000 0.000000
										CHANNELS 3 Xrotation Yrotation Zrotation
										JOINT RightHandRing3
										{
											OFFSET -5.779297 0.000000 0.000000
											CHANNELS 3 Xrotation Yrotation Zrotation
											JOINT RightHandRing4
											{
												OFFSET -4.965698 0.000000 0.000000
												CHANNELS 3 Xrotation Yrotation Zrotation
												End Site
												{
													OFFSET 0.000000 4.965668 0.016226
												}
											}
										}
									}
								}
								JOINT RightHandPinky1
								{
									OFFSET -20.037003 -1.530334 -10.950259
									CHANNELS 3 Xrotation Yrotation Zrotation
									JOINT RightHandPinky2
									{
										OFFSET -5.254700 0.000000 0.000000
										CHANNELS 3 Xrotation Yrotation Zrotation
										JOINT RightHandPinky3
										{
											OFFSET -4.810204 0.000000 0.000000
											CHANNELS 3 Xrotation Yrotation Zrotation
											JOINT RightHandPinky4
											{
												OFFSET -3.647202 0.000000 0.000000
												CHANNELS 3 Xrotation Yrotation Zrotation
												End Site
												{
													OFFSET 0.000000 3.647186 0.011917
												}
											}
										}
									}
								}
							}
						}
					}
				}
			}
		}
	}
	JOINT LeftUpLeg
	{
		OFFSET 15.427100 -6.655098 0.678600
		CHANNELS 3 Xrotation Yrotation Zrotation
		JOINT LeftLeg
		{
			OFFSET 4.081073 -39.591068 13.024000
			CHANNELS 3 Xrotation Yrotation Zrotation
			JOINT LeftFoot
			{
				OFFSET -4.081074 -37.707932 -15.979700
				CHANNELS 3 Xrotation Yrotation Zrotation
				JOINT LeftToeBase
				{
					OFFSET 5.346399 -15.068900 20.645000
					CHANNELS 3 Xrotation Yrotation Zrotation
					JOINT LeftToe_End
					{
						OFFSET 2.754700 0.931300 11.300900
						CHANNELS 3 Xrotation Yrotation Zrotation
						End Site
						{
							OFFSET 0.000000 11.669021 0.000000
						}
					}
				}
			}
		}
	}
	JOINT RightUpLeg
	{
		OFFSET -15.569500 -6.655098 0.678600
		CHANNELS 3 Xrotation Yrotation Zrotation
		JOINT RightLeg
		{
			OFFSET -4.081825 -39.591045 13.023800
			CHANNELS 3 Xrotation Yrotation Zrotation
			JOINT RightFoot
			{
				OFFSET 4.081824 -37.707954 -15.979600
				CHANNELS 3 Xrotation Yrotation Zrotation
				JOINT RightToeBase
				{
					OFFSET -5.346400 -15.068900 20.645000
					CHANNELS 3 Xrotation Yrotation Zrotation
					JOINT RightToe_End
					{
						OFFSET -2.754700 0.931300 11.300900
						CHANNELS 3 Xrotation Yrotation Zrotation
						End Site
						{
							OFFSET 0.000000 11.669021 0.000000
						}
					}
				}
			}
		}
	}
}
MOTION
Frames: 4
Frame Time: 0.033333
10.507950 90.995674 145.059799 -4.805681 -48.786931 -8.062347 4.417905 -6.616762 -5.763495 2.676468 -5.135196 -1.632606 2.747752 -5.169457 -1.369325 -0.086525 -1.074302 -1.342832 4.339511 -8.432950 7.239393 -0.000000 0.000000 -0.000000 0.582264 0.555306 -6.517512 0.374060 -37.865944 -19.446407 0.000015 -48.253883 0.000021 -25.995345 -16.043886 16.779413 23.519058 -18.525346 13.176009 -8.131196 18.803299 4.387242 -6.281574 7.264425 3.591321 0.000000 -0.000000 -0.000000 0.130310 1.335936 -11.142156 0.125591 1.311779 -10.938013 0.031456 0.658885 -5.468302 -0.000001 0.000002 -0.000001 0.129941 1.334044 -11.126166 0.125950 1.313662 -10.954027 0.031470 0.658892 -5.468284 0.000001 0.000001 0.000000 0.130310 1.335936 -11.142154 0.125588 1.311779 -10.938014 0.031465 0.658884 -5.468300 0.000001 -0.000000 0.000000 0.898740 5.317018 -10.676365 0.119336 -2.743642 -11.439471 0.031469 0.658879 -5.468301 -0.000003 0.000000 -0.000000 1.258216 1.819209 9.809822 36.914884 12.375902 67.624064 0.000006 27.257082 -0.000011 -0.915139 -13.105198 10.199852 -28.951270 18.030567 -4.326372 6.629666 -18.113105 2.990095 -0.438994 -4.651443 -0.779237 -0.000000 0.000002 0.000001 0.068249 0.973826 -8.017864 -0.000002 -0.000002 -0.000001 0.013608 0.435707 -3.577601 0.000001 0.000000 -0.000000 0.068250 0.973826 -8.017864 -0.000001 -0.000001 -0.000001 0.013596 0.435703 -3.577600 0.000001 0.000000 -0.000000 0.068246 0.973829 -8.017864 0.000003 -0.000003 0.000001 0.013603 0.435706 -3.577598 -0.000001 0.000002 0.000001 0.068249 0.973826 -8.017863 -0.000004 -0.000003 -0.000001 0.013604 0.435706 -3.577599 0.000003 0.000001 0.000001 6.174631 33.263820 7.580270 25.268522 4.257115 2.716932 -29.029499 5.598974 -11.933457 -2.135328 -0.000004 0.000002 0.000000 -0.000000 0.000000 -26.272422 -17.313153 8.582173 39.958949 8.004045 -10.154376 2.423877 4.717126 3.945582 -1.419887 0.024574 -0.992044 0.000000 -0.000002 0.000001 
10.910743 91.846786 148.089355 -3.566685 -46.564162 -7.528515 4.544968 -6.782538 -4.964388 2.701826 -5.225972 -1.606476 2.765550 -5.266316 -1.337696 -0.350823 -0.784284 -1.042306 3.126289 -6.604120 7.030258 -0.000000 0.000001 -0.000000 0.604120 0.205644 -6.338618 -2.149300 -40.309768 -21.592069 0.000012 -53.154656 0.000010 -23.025951 -14.891585 16.341701 23.519036 -18.525356 13.176009 -8.131196 18.803301 4.387241 -6.281582 7.264427 3.591333 -0.000000 -0.000002 -0.000002 0.130315 1.335936 -11.142156 0.125595 1.311779 -10.938012 0.031461 0.658884 -5.468302 0.000001 0.000000 0.000000 0.129943 1.334044 -11.126165 0.125950 1.313661 -10.954023 0.031473 0.658891 -5.468284 -0.000002 -0.000001 0.000000 0.130315 1.335936 -11.142156 0.125590 1.311779 -10.938012 0.031462 0.658883 -5.468299 -0.000001 0.000000 0.000000 0.898740 5.317017 -10.676368 0.119335 -2.743643 -11.439471 0.031466 0.658879 -5.468300 -0.000001 -0.000000 0.000000 1.268567 1.777122 9.870838 33.311256 17.452574 67.496305 0.000009 28.916203 -0.000017 -0.329227 -15.009605 7.720549 -26.886070 16.800228 -4.993790 6.629665 -18.113103 2.990100 -0.438992 -4.651448 -0.779241 -0.000002 -0.000003 -0.000001 0.048675 0.822994 -6.769326 -0.000002 -0.000003 0.000007 0.013582 0.435395 -3.575099 0.000000 -0.000000 -0.000001 0.048676 0.822993 -6.769325 -0.000000 -0.000002 0.000022 0.013580 0.435400 -3.575100 0.000001 0.000000 0.000000 0.048672 0.822995 -6.769328 -0.000002 -0.000004 0.000012 0.013585 0.435396 -3.575096 -0.000001 -0.000001 -0.000001 0.048675 0.822994 -6.769325 -0.000001 -0.000002 0.000008 0.013592 0.435392 -3.575098 0.000002 -0.000001 0.000001 8.850281 32.608351 5.340767 21.906751 3.527131 2.546555 -29.090384 4.987222 -10.898796 -2.135331 -0.000006 -0.000002 0.000000 0.000001 0.000000 -25.269728 -20.600387 11.392114 33.328065 8.147423 -10.126956 1.711421 5.157293 4.858970 0.000001 -0.000014 0.000002 0.000000 -0.000000 0.000000 
11.187781 92.581184 151.025208 -2.341220 -43.828969 -7.029864 4.682172 -6.849204 -4.114726 2.731562 -5.246733 -1.534724 2.790374 -5.288078 -1.264130 -0.568088 -0.702037 -0.621330 2.113693 -5.604811 6.731495 0.000000 -0.000001 -0.000001 0.617368 -0.109446 -6.079011 -4.172640 -43.511153 -24.107342 0.000007 -56.688729 0.000003 -19.630428 -13.458265 14.352456 23.519056 -18.525348 13.175997 -8.131187 18.803296 4.387241 -6.281573 7.264425 3.591323 -0.000000 -0.000001 -0.000001 0.130312 1.335936 -11.142155 0.125592 1.311777 -10.938013 0.031458 0.658883 -5.468301 0.000000 0.000001 -0.000001 0.129940 1.334045 -11.126166 0.125951 1.313661 -10.954023 0.031471 0.658891 -5.468283 -0.000000 -0.000000 -0.000000 0.130312 1.335936 -11.142154 0.125591 1.311779 -10.938013 0.031460 0.658883 -5.468300 -0.000001 0.000000 0.000001 0.898740 5.317016 -10.676364 0.119335 -2.743642 -11.439472 0.031460 0.658878 -5.468300 -0.000000 -0.000000 0.000000 1.272616 1.716297 9.934858 29.594325 21.588194 67.403954 -0.000009 30.706488 -0.000006 -1.431165 -16.643547 2.567391 -24.434667 15.286988 -5.806294 6.629669 -18.113108 2.990091 -0.438992 -4.651443 -0.779242 -0.000000 -0.000003 0.000000 0.024301 0.582120 -4.782396 -0.000003 0.000000 0.000002 0.013438 0.432861 -3.554243 0.000001 -0.000002 0.000000 0.024301 0.582120 -4.782395 0.000001 -0.000002 0.000023 0.013430 0.432861 -3.554249 0.000003 0.000001 -0.000000 0.024306 0.582121 -4.782395 0.000001 -0.000001 0.000030 0.013434 0.432860 -3.554250 0.000001 0.000000 -0.000001 0.024301 0.582120 -4.782395 -0.000004 0.000001 0.000001 0.013437 0.432860 -3.554243 0.000003 0.000000 0.000001 11.151226 31.989362 3.608018 18.616987 2.187106 2.426748 -28.946943 4.372119 -9.914241 -2.135325 -0.000000 -0.000001 -0.000000 0.000000 0.000000 -24.097450 -23.585502 13.663430 26.593698 8.203129 -9.377669 1.004390 4.604937 5.561157 0.000004 -0.000010 0.000005 0.000000 0.000001 -0.000000 
11.273605 93.181572 154.022141 -1.120426 -40.597463 -6.349382 4.753900 -6.915634 -3.380692 2.721938 -5.269321 -1.387810 2.780846 -5.305359 -1.113140 -0.785398 -0.761830 -0.160083 1.302085 -5.231889 6.451611 -0.000000 -0.000001 -0.000000 0.615610 -0.520561 -5.763194 -5.162073 -47.105148 -26.501928 -0.000047 -59.022943 -0.000054 -16.311089 -12.232200 12.463999 23.519056 -18.525360 13.176002 -8.131193 18.803299 4.387238 -6.281579 7.264426 3.591326 0.000001 -0.000001 0.000000 0.130314 1.335936 -11.142158 0.125593 1.311778 -10.938013 0.031453 0.658883 -5.468302 0.000000 -0.000001 -0.000002 0.129939 1.334045 -11.126167 0.125951 1.313661 -10.954023 0.031471 0.658891 -5.468284 0.000000 -0.000001 -0.000001 0.130314 1.335935 -11.142157 0.125588 1.311779 -10.938012 0.031456 0.658883 -5.468299 0.000003 -0.000000 -0.000001 0.898741 5.317015 -10.676369 0.119333 -2.743642 -11.439471 0.031462 0.658879 -5.468300 -0.000004 0.000000 0.000000 1.277215 1.645530 10.034753 26.490993 25.192419 66.663261 0.000005 33.153345 -0.000002 -4.933467 -18.067867 -4.019743 -21.718948 13.439719 -6.748219 6.629670 -18.113105 2.990096 -0.438993 -4.651445 -0.779243 -0.000000 -0.000001 0.000000 0.005412 0.274634 -2.254161 -0.000007 0.000006 0.000009 0.013102 0.427464 -3.509860 -0.000001 0.000003 0.000001 0.005413 0.274634 -2.254161 -0.000001 0.000001 0.000001 0.013099 0.427468 -3.509873 0.000000 0.000000 0.000000 0.005409 0.274639 -2.254168 -0.000004 0.000001 0.000018 0.013104 0.427465 -3.509859 -0.000002 -0.000002 -0.000002 0.005412 0.274634 -2.254161 -0.000003 0.000001 0.000001 0.013098 0.427465 -3.509874 -0.000002 -0.000002 -0.000001 13.511093 31.636927 1.928545 15.138015 0.011344 2.354300 -28.596578 3.729756 -8.881138 -2.135328 0.000000 0.000000 -0.000000 -0.000000 -0.000000 -23.306050 -24.654698 14.401980 19.800194 8.228782 -6.119001 0.017383 2.392774 5.440336 -0.000005 -0.000005 -0.000005 0.000001 -0.000003 0.000001 
